<svg preserveAspectRatio="none" width="100%" height="100%" overflow="visible" style="display: block;" viewBox="0 0 40 40" fill="none" xmlns="http://www.w3.org/2000/svg">
<g id="buildings">
<path id="Vector" d="M21.6667 36.6667H8.33333C5 36.6667 3.33333 35 3.33333 31.6667V18.3333C3.33333 15 5 13.3333 8.33333 13.3333H16.6667V31.6667C16.6667 35 18.3333 36.6667 21.6667 36.6667Z" stroke="var(--stroke-0, #013A33)" stroke-width="2.5" stroke-miterlimit="10" stroke-linecap="round" stroke-linejoin="round"/>
<path id="Vector_2" d="M16.85 6.66667C16.7166 7.16667 16.6667 7.71667 16.6667 8.33333V13.3333H8.33333V10C8.33333 8.16667 9.83333 6.66667 11.6667 6.66667H16.85Z" stroke="var(--stroke-0, #013A33)" stroke-width="2.5" stroke-miterlimit="10" stroke-linecap="round" stroke-linejoin="round"/>
<path id="Vector_3" d="M23.3333 13.3333V21.6667" stroke="var(--stroke-0, #013A33)" stroke-width="2.5" stroke-miterlimit="10" stroke-linecap="round" stroke-linejoin="round"/>
<path id="Vector_4" d="M30 13.3333V21.6667" stroke="var(--stroke-0, #013A33)" stroke-width="2.5" stroke-miterlimit="10" stroke-linecap="round" stroke-linejoin="round"/>
<path id="Vector_5" d="M28.3333 28.3333H25C24.0833 28.3333 23.3333 29.0833 23.3333 30V36.6667H30V30C30 29.0833 29.25 28.3333 28.3333 28.3333Z" stroke="var(--stroke-0, #013A33)" stroke-width="2.5" stroke-miterlimit="10" stroke-linecap="round" stroke-linejoin="round"/>
<path id="Vector_6" d="M10 21.6667V28.3333" stroke="var(--stroke-0, #013A33)" stroke-width="2.5" stroke-miterlimit="10" stroke-linecap="round" stroke-linejoin="round"/>
<path id="Vector_7" d="M16.6667 31.6667V8.33333C16.6667 5 18.3333 3.33333 21.6667 3.33333H31.6667C35 3.33333 36.6667 5 36.6667 8.33333V31.6667C36.6667 35 35 36.6667 31.6667 36.6667H21.6667C18.3333 36.6667 16.6667 35 16.6667 31.6667Z" stroke="var(--stroke-0, #013A33)" stroke-width="2.5" stroke-miterlimit="10" stroke-linecap="round" stroke-linejoin="round"/>
<g id="Vector_8" opacity="0">
</g>
</g>
</svg>
