<svg preserveAspectRatio="none" width="100%" height="100%" overflow="visible" style="display: block;" viewBox="0 0 34 34" fill="none" xmlns="http://www.w3.org/2000/svg">
<g id="emojione-monotone:balance-scale">
<path id="Vector" d="M20.9844 18.4954C20.9844 21.796 23.6603 24.4719 26.9609 24.4719C30.2616 24.4719 32.9375 21.7955 32.9375 18.4954H32.0477L28.1669 8.61573C28.4105 8.43146 28.6083 8.19336 28.7446 7.92002C28.881 7.64668 28.9524 7.34551 28.9531 7.04004C28.9531 5.94035 28.0606 5.04785 26.9609 5.04785C26.6698 5.04785 26.3957 5.11373 26.1465 5.22529C25.74 5.06705 25.3346 4.90572 24.9305 4.74132C23.4069 4.11657 21.6341 3.39726 19.788 2.98288C19.5722 2.41836 19.1901 1.93263 18.6923 1.58992C18.1945 1.2472 17.6044 1.06363 17 1.06348C16.3956 1.06367 15.8054 1.24732 15.3076 1.59013C14.8098 1.93295 14.4277 2.41879 14.212 2.98341C12.3654 3.39726 10.5926 4.11657 9.06897 4.74185C8.72206 4.88423 8.23384 5.07654 7.85294 5.22582C7.59748 5.10903 7.31995 5.04834 7.03906 5.04785C6.5107 5.04785 6.00398 5.25774 5.63037 5.63135C5.25677 6.00496 5.04688 6.51168 5.04688 7.04004C5.04755 7.34547 5.11882 7.64661 5.25511 7.91994C5.39141 8.19328 5.58905 8.4314 5.83259 8.61573L1.95181 18.4954H1.0625C1.0625 21.796 3.73841 24.4719 7.03906 24.4719C10.3397 24.4719 13.0156 21.796 13.0156 18.4954H12.1258L8.245 8.61626C8.48871 8.43194 8.6865 8.19375 8.82289 7.92031C8.95929 7.64688 9.0306 7.3456 9.03125 7.04004C9.03125 6.99382 9.02009 6.95026 9.01744 6.90457L9.51416 6.70323C10.9119 6.12895 12.5306 5.4686 14.1918 5.06538C14.3421 5.48091 14.5826 5.85797 14.896 6.16946C15.2095 6.48095 15.588 6.71912 16.0044 6.86685V9.91198H15.3935V19.4915H14.7294V24.1819C11.4341 24.7934 9.03125 26.6974 9.03125 28.9541H8.03516V30.9463H6.04297V32.9385H27.957V30.9463H25.9648V28.9541H24.9688C24.9688 26.6974 22.5648 24.7934 19.2711 24.1819V19.4915H18.607V9.91145H17.9961V6.86632C18.4124 6.71852 18.7909 6.48032 19.1042 6.16883C19.4175 5.85735 19.6579 5.48032 19.8082 5.06485C21.4699 5.46807 23.0876 6.12841 24.4864 6.7027C24.6564 6.77282 24.8168 6.8371 24.9826 6.90457C24.9794 6.95026 24.9688 6.99382 24.9688 7.04004C24.9694 7.34547 25.0407 7.64661 25.177 7.91994C25.3133 8.19328 25.5109 8.4314 25.7545 8.61573L21.8737 18.4949L20.9844 18.4954ZM7.03906 6.04395C7.17184 6.04091 7.30389 6.06445 7.42744 6.11318C7.551 6.16191 7.66357 6.23484 7.75853 6.32769C7.8535 6.42054 7.92895 6.53143 7.98045 6.65386C8.03195 6.77628 8.05846 6.90776 8.05843 7.04058C8.05839 7.17339 8.03181 7.30486 7.98025 7.42726C7.92868 7.54965 7.85317 7.66051 7.75815 7.7533C7.66314 7.8461 7.55053 7.91897 7.42695 7.96764C7.30337 8.0163 7.17131 8.03977 7.03853 8.03666C6.77826 8.03059 6.53071 7.92291 6.34881 7.73666C6.16691 7.55041 6.06511 7.30038 6.06518 7.04005C6.06525 6.77971 6.16718 6.52973 6.34918 6.34358C6.53118 6.15743 6.77879 6.04989 7.03906 6.04395ZM11.0973 18.4954H2.97925L6.70969 8.99929C6.81753 9.01735 6.92644 9.03223 7.03906 9.03223C7.15169 9.03223 7.26006 9.01735 7.36738 8.99876L11.0973 18.4954ZM26.9609 6.04395C27.0937 6.04091 27.2258 6.06445 27.3493 6.11318C27.4729 6.16191 27.5854 6.23484 27.6804 6.32769C27.7754 6.42054 27.8508 6.53143 27.9023 6.65386C27.9538 6.77628 27.9803 6.90776 27.9803 7.04058C27.9803 7.17339 27.9537 7.30486 27.9021 7.42726C27.8506 7.54965 27.775 7.66051 27.68 7.7533C27.585 7.8461 27.4724 7.91897 27.3488 7.96764C27.2252 8.0163 27.0932 8.03977 26.9604 8.03666C26.7001 8.03059 26.4526 7.92291 26.2707 7.73666C26.0888 7.55041 25.987 7.30038 25.9871 7.04005C25.9871 6.77971 26.0891 6.52973 26.2711 6.34358C26.4531 6.15743 26.7007 6.04989 26.9609 6.04395ZM26.6321 8.99929C26.7407 9.01879 26.8506 9.0298 26.9609 9.03223C27.073 9.03223 27.1819 9.01735 27.2893 8.99876L31.0192 18.4949H22.9006L26.6321 8.99929Z" fill="var(--fill-0, #F3EDDF)"/>
</g>
</svg>
