<svg preserveAspectRatio="none" width="100%" height="100%" overflow="visible" style="display: block;" viewBox="0 0 30 30" fill="none" xmlns="http://www.w3.org/2000/svg">
<g id="emojione-monotone:balance-scale" clip-path="url(#clip0_0_320)">
<path id="Vector" d="M18.5156 16.3186C18.5156 19.2309 20.8767 21.592 23.7891 21.592C26.7014 21.592 29.0625 19.2305 29.0625 16.3186H28.2773L24.8531 7.60125C25.0681 7.43866 25.2426 7.22857 25.3629 6.98739C25.4833 6.74621 25.5462 6.48047 25.5469 6.21094C25.5469 5.24063 24.7594 4.45312 23.7891 4.45312C23.5322 4.45312 23.2903 4.51125 23.0705 4.60969C22.7117 4.47007 22.3541 4.32772 21.9975 4.18266C20.6531 3.63141 19.0889 2.99672 17.46 2.63109C17.2696 2.13299 16.9324 1.7044 16.4932 1.40201C16.0539 1.09961 15.5333 0.937634 15 0.9375C14.4667 0.937671 13.946 1.09971 13.5067 1.4022C13.0675 1.70468 12.7304 2.13337 12.54 2.63156C10.9106 2.99672 9.34641 3.63141 8.00203 4.18312C7.69594 4.30875 7.26516 4.47844 6.92906 4.61016C6.70366 4.5071 6.45878 4.45356 6.21094 4.45312C5.74474 4.45313 5.29763 4.63832 4.96798 4.96798C4.63832 5.29763 4.45312 5.74474 4.45312 6.21094C4.45372 6.48044 4.5166 6.74615 4.63687 6.98732C4.75713 7.2285 4.93151 7.43861 5.14641 7.60125L1.72219 16.3186H0.9375C0.9375 19.2309 3.29859 21.592 6.21094 21.592C9.12328 21.592 11.4844 19.2309 11.4844 16.3186H10.6992L7.275 7.60172C7.49004 7.43908 7.66456 7.22892 7.7849 6.98765C7.90525 6.74638 7.96817 6.48055 7.96875 6.21094C7.96875 6.17016 7.95891 6.13172 7.95656 6.09141L8.39484 5.91375C9.62813 5.40703 11.0564 4.82437 12.5222 4.46859C12.6548 4.83524 12.867 5.16794 13.1436 5.44278C13.4201 5.71762 13.7541 5.92777 14.1216 6.05812V8.745H13.5825V17.1975H12.9966V21.3361C10.0889 21.8756 7.96875 23.5556 7.96875 25.5469H7.08984V27.3047H5.33203V29.0625H24.668V27.3047H22.9102V25.5469H22.0312C22.0312 23.5556 19.9102 21.8756 17.0039 21.3361V17.1975H16.418V8.74453H15.8789V6.05766C16.2463 5.92724 16.5802 5.71707 16.8566 5.44223C17.1331 5.16739 17.3452 4.83472 17.4778 4.46812C18.9441 4.82391 20.3714 5.40656 21.6056 5.91328C21.7556 5.97516 21.8972 6.03187 22.0434 6.09141C22.0406 6.13172 22.0312 6.17016 22.0312 6.21094C22.0318 6.48044 22.0947 6.74615 22.215 6.98732C22.3353 7.2285 22.5096 7.43861 22.7245 7.60125L19.3003 16.3181L18.5156 16.3186ZM6.21094 5.33203C6.3281 5.32936 6.44461 5.35013 6.55363 5.39312C6.66264 5.43612 6.76197 5.50047 6.84576 5.58239C6.92956 5.66432 6.99613 5.76217 7.04158 5.87019C7.08702 5.97821 7.11041 6.09422 7.11038 6.21141C7.11035 6.3286 7.08689 6.4446 7.04139 6.5526C6.99589 6.6606 6.92927 6.75841 6.84543 6.84029C6.76159 6.92217 6.66223 6.98647 6.55319 7.0294C6.44415 7.07234 6.32763 7.09305 6.21047 7.09031C5.98082 7.08495 5.76239 6.98994 5.60189 6.8256C5.44139 6.66127 5.35157 6.44065 5.35163 6.21094C5.35169 5.98123 5.44163 5.76067 5.60222 5.59642C5.76281 5.43217 5.98129 5.33727 6.21094 5.33203ZM9.79172 16.3186H2.62875L5.92031 7.93969C6.01547 7.95562 6.11156 7.96875 6.21094 7.96875C6.31031 7.96875 6.40594 7.95563 6.50063 7.93922L9.79172 16.3186ZM23.7891 5.33203C23.9062 5.32936 24.0227 5.35013 24.1318 5.39312C24.2408 5.43612 24.3401 5.50047 24.4239 5.58239C24.5077 5.66432 24.5743 5.76217 24.6197 5.87019C24.6651 5.97821 24.6885 6.09422 24.6885 6.21141C24.6885 6.3286 24.665 6.4446 24.6195 6.5526C24.574 6.6606 24.5074 6.75841 24.4236 6.84029C24.3397 6.92217 24.2404 6.98647 24.1313 7.0294C24.0223 7.07234 23.9058 7.09305 23.7886 7.09031C23.5589 7.08495 23.3405 6.98994 23.18 6.8256C23.0195 6.66127 22.9297 6.44065 22.9298 6.21094C22.9298 5.98123 23.0198 5.76067 23.1803 5.59642C23.3409 5.43217 23.5594 5.33727 23.7891 5.33203ZM23.4989 7.93969C23.5947 7.95689 23.6917 7.96661 23.7891 7.96875C23.888 7.96875 23.9841 7.95563 24.0788 7.93922L27.3698 16.3181H20.2064L23.4989 7.93969Z" fill="var(--fill-0, #111111)"/>
</g>
<defs>
<clipPath id="clip0_0_320">
<rect width="30" height="30" fill="white"/>
</clipPath>
</defs>
</svg>
