<svg preserveAspectRatio="none" width="100%" height="100%" overflow="visible" style="display: block;" viewBox="0 0 50 50" fill="none" xmlns="http://www.w3.org/2000/svg">
<g id="emojione-monotone:balance-scale">
<path id="Vector" d="M30.8594 27.1977C30.8594 32.0516 34.7945 35.9867 39.6484 35.9867C44.5023 35.9867 48.4375 32.0508 48.4375 27.1977H47.1289L41.4219 12.6687C41.7802 12.3978 42.071 12.0476 42.2715 11.6457C42.4721 11.2437 42.577 10.8008 42.5781 10.3516C42.5781 8.73438 41.2656 7.42188 39.6484 7.42188C39.2203 7.42188 38.8172 7.51875 38.4508 7.68281C37.8529 7.45011 37.2568 7.21286 36.6625 6.97109C34.4219 6.05234 31.8148 4.99453 29.1 4.38516C28.7826 3.55498 28.2207 2.84067 27.4887 2.33668C26.7566 1.83268 25.8888 1.56272 25 1.5625C24.1111 1.56278 23.2433 1.83285 22.5112 2.337C21.7791 2.84114 21.2173 3.55561 20.9 4.38594C18.1844 4.99453 15.5773 6.05234 13.3367 6.97187C12.8266 7.18125 12.1086 7.46406 11.5484 7.68359C11.1728 7.51184 10.7646 7.42259 10.3516 7.42188C9.57456 7.42188 8.82939 7.73054 8.27996 8.27996C7.73054 8.82938 7.42188 9.57456 7.42188 10.3516C7.42287 10.8007 7.52767 11.2436 7.72811 11.6455C7.92855 12.0475 8.21919 12.3977 8.57735 12.6687L2.87032 27.1977H1.5625C1.5625 32.0516 5.49766 35.9867 10.3516 35.9867C15.2055 35.9867 19.1406 32.0516 19.1406 27.1977H17.832L12.125 12.6695C12.4834 12.3985 12.7743 12.0482 12.9748 11.6461C13.1754 11.244 13.2803 10.8009 13.2813 10.3516C13.2813 10.2836 13.2648 10.2195 13.2609 10.1523L13.9914 9.85625C16.0469 9.01172 18.4273 8.04062 20.8703 7.44766C21.0913 8.05873 21.445 8.61323 21.9059 9.0713C22.3668 9.52937 22.9235 9.87962 23.5359 10.0969V14.575H22.6375V28.6625H21.6609V35.5602C16.8148 36.4594 13.2813 39.2594 13.2813 42.5781H11.8164V45.5078H8.88672V48.4375H41.1133V45.5078H38.1836V42.5781H36.7188C36.7188 39.2594 33.1836 36.4594 28.3398 35.5602V28.6625H27.3633V14.5742H26.4648V10.0961C27.0771 9.87874 27.6336 9.52844 28.0944 9.07038C28.5552 8.61232 28.9087 8.05786 29.1297 7.44687C31.5734 8.03984 33.9523 9.01094 36.0094 9.85547C36.2594 9.95859 36.4953 10.0531 36.7391 10.1523C36.7344 10.2195 36.7188 10.2836 36.7188 10.3516C36.7197 10.8007 36.8245 11.2436 37.025 11.6455C37.2254 12.0475 37.5161 12.3977 37.8742 12.6687L32.1672 27.1969L30.8594 27.1977ZM10.3516 8.88672C10.5468 8.88226 10.741 8.91688 10.9227 8.98854C11.1044 9.06019 11.27 9.16744 11.4096 9.30399C11.5493 9.44053 11.6602 9.60361 11.736 9.78365C11.8117 9.96368 11.8507 10.157 11.8506 10.3524C11.8506 10.5477 11.8115 10.741 11.7357 10.921C11.6598 11.101 11.5488 11.264 11.409 11.4005C11.2693 11.537 11.1037 11.6441 10.922 11.7157C10.7403 11.7872 10.546 11.8217 10.3508 11.8172C9.96804 11.8082 9.60399 11.6499 9.33649 11.376C9.06899 11.1021 8.91928 10.7344 8.91938 10.3516C8.91949 9.96872 9.06939 9.60111 9.33703 9.32736C9.60468 9.05361 9.96882 8.89545 10.3516 8.88672ZM16.3195 27.1977H4.38125L9.86719 13.2328C10.0258 13.2594 10.1859 13.2812 10.3516 13.2812C10.5172 13.2812 10.6766 13.2594 10.8344 13.232L16.3195 27.1977ZM39.6484 8.88672C39.8437 8.88226 40.0379 8.91688 40.2196 8.98854C40.4013 9.06019 40.5668 9.16744 40.7065 9.30399C40.8461 9.44053 40.9571 9.60361 41.0328 9.78365C41.1086 9.96368 41.1476 10.157 41.1475 10.3524C41.1475 10.5477 41.1084 10.741 41.0325 10.921C40.9567 11.101 40.8457 11.264 40.7059 11.4005C40.5662 11.537 40.4006 11.6441 40.2189 11.7157C40.0371 11.7872 39.8429 11.8217 39.6477 11.8172C39.2649 11.8082 38.9009 11.6499 38.6334 11.376C38.3659 11.1021 38.2162 10.7344 38.2163 10.3516C38.2164 9.96872 38.3663 9.60111 38.6339 9.32736C38.9016 9.05361 39.2657 8.89545 39.6484 8.88672ZM39.1648 13.2328C39.3245 13.2615 39.4862 13.2777 39.6484 13.2812C39.8133 13.2812 39.9734 13.2594 40.1313 13.232L45.6164 27.1969H33.6773L39.1648 13.2328Z" fill="var(--fill-0, white)"/>
</g>
</svg>
