<svg preserveAspectRatio="none" width="100%" height="100%" overflow="visible" style="display: block;" viewBox="0 0 15.9954 15.9966" fill="none" xmlns="http://www.w3.org/2000/svg">
<g id="Group">
<path id="Vector" fill-rule="evenodd" clip-rule="evenodd" d="M7.99772 1.44229C10.1326 1.44229 10.3863 1.45029 11.2297 1.488C12.0091 1.52457 12.4331 1.65486 12.7154 1.76457C13.088 1.90971 13.3543 2.08229 13.6343 2.36229C13.9143 2.64228 14.0869 2.90857 14.232 3.28228C14.3417 3.56343 14.472 3.98743 14.5074 4.768C14.5463 5.61028 14.5531 5.86286 14.5531 7.99885C14.5531 10.1337 14.5463 10.3874 14.5074 11.2309C14.472 12.0103 14.3417 12.4343 14.2331 12.7166C14.0869 13.0891 13.9131 13.3554 13.6343 13.6354C13.3761 13.9009 13.0618 14.1052 12.7143 14.2331C12.432 14.3429 12.0091 14.4731 11.2286 14.5086C10.3863 14.5474 10.1337 14.5543 7.99772 14.5543C5.86172 14.5543 5.60914 14.5474 4.76572 14.5086C3.98629 14.4731 3.56343 14.3429 3.28 14.2343C2.93282 14.1058 2.61885 13.9012 2.36114 13.6354C2.09566 13.3773 1.89142 13.0629 1.76343 12.7154C1.65371 12.4331 1.52343 12.0103 1.488 11.2297C1.44914 10.3874 1.44229 10.1337 1.44229 7.99885C1.44229 5.86286 1.44914 5.61028 1.488 4.76686C1.52343 3.98743 1.65371 3.56457 1.76229 3.28114C1.90857 2.90857 2.08229 2.64228 2.36114 2.36229C2.64114 2.08229 2.90743 1.90971 3.28114 1.76457C3.56229 1.65486 3.98629 1.52457 4.76686 1.48914C5.60914 1.45029 5.86172 1.44343 7.99772 1.44343M7.99772 0C5.82629 0 5.55314 0.00914286 4.70057 0.048C3.84914 0.088 3.26629 0.224 2.75886 0.421714C2.22501 0.622392 1.74138 0.937142 1.34171 1.344C0.935269 1.74378 0.620915 2.2274 0.420572 2.76114C0.222857 3.26743 0.0868572 3.85028 0.048 4.70057C0.00914286 5.55314 0 5.82628 0 7.99885C0 10.1703 0.00914286 10.4434 0.048 11.296C0.0868572 12.1474 0.222857 12.7291 0.420572 13.2377C0.624 13.7634 0.898286 14.2091 1.34286 14.6549C1.78743 15.0983 2.23314 15.3726 2.76 15.576C3.26743 15.7737 3.84914 15.9097 4.70057 15.9486C5.55314 15.9874 5.82514 15.9966 7.99772 15.9966C10.1691 15.9966 10.4423 15.9874 11.2949 15.9486C12.1463 15.9097 12.728 15.7737 13.2366 15.576C13.7704 15.3753 14.2541 15.0606 14.6537 14.6537C15.0602 14.2539 15.3745 13.7703 15.5749 13.2366C15.7726 12.7291 15.9086 12.1474 15.9474 11.296C15.9863 10.4434 15.9954 10.1703 15.9954 7.99885C15.9954 5.82743 15.9863 5.55428 15.9474 4.70171C15.9086 3.85028 15.7726 3.26857 15.5749 2.76C15.3742 2.22615 15.0594 1.74252 14.6526 1.34286C14.2528 0.936411 13.7692 0.622057 13.2354 0.421714C12.7291 0.224 12.1463 0.088 11.296 0.0491428C10.4434 0.0102857 10.1691 0.00114286 7.99772 0.00114286" fill="var(--fill-0, #111111)"/>
<path id="Vector_2" fill-rule="evenodd" clip-rule="evenodd" d="M7.99691 3.89182C6.90786 3.89182 5.86341 4.32444 5.09333 5.09452C4.32325 5.8646 3.89063 6.90905 3.89062 7.9981C3.89063 9.08716 4.32325 10.1316 5.09333 10.9017C5.86341 11.6718 6.90786 12.1044 7.99691 12.1044C9.08597 12.1044 10.1304 11.6718 10.9005 10.9017C11.6706 10.1316 12.1032 9.08716 12.1032 7.9981C12.1032 6.90905 11.6706 5.8646 10.9005 5.09452C10.1304 4.32444 9.08597 3.89182 7.99691 3.89182V3.89182ZM7.99691 10.6644C7.28977 10.6644 6.61159 10.3835 6.11156 9.88345C5.61154 9.38343 5.33062 8.70525 5.33062 7.9981C5.33062 7.29096 5.61154 6.61278 6.11156 6.11275C6.61159 5.61273 7.28977 5.33182 7.99691 5.33182C8.70405 5.33182 9.38223 5.61273 9.88226 6.11275C10.3823 6.61278 10.6632 7.29096 10.6632 7.9981C10.6632 8.70525 10.3823 9.38343 9.88226 9.88345C9.38223 10.3835 8.70405 10.6644 7.99691 10.6644ZM13.2255 3.72953C13.2255 3.98414 13.1243 4.22832 12.9443 4.40835C12.7643 4.58839 12.5201 4.68953 12.2655 4.68953C12.0109 4.68953 11.7667 4.58839 11.5867 4.40835C11.4066 4.22832 11.3055 3.98414 11.3055 3.72953C11.3055 3.47492 11.4066 3.23074 11.5867 3.05071C11.7667 2.87067 12.0109 2.76953 12.2655 2.76953C12.5201 2.76953 12.7643 2.87067 12.9443 3.05071C13.1243 3.23074 13.2255 3.47492 13.2255 3.72953" fill="var(--fill-0, #111111)"/>
</g>
</svg>
