<svg preserveAspectRatio="none" width="100%" height="100%" overflow="visible" style="display: block;" viewBox="0 0 16 16" fill="none" xmlns="http://www.w3.org/2000/svg">
<g id="svg">
<path id="Vector" fill-rule="evenodd" clip-rule="evenodd" d="M14.4 4.71953V5.11953C14.4 9.43953 11.12 14.4795 5.04 14.4795C3.2 14.4795 1.44 13.9195 0 13.0395C0.24 13.0395 0.56 13.1195 0.8 13.1195C2.32 13.1195 3.76 12.5595 4.88 11.6795C3.44 11.6795 2.24 10.7195 1.84 9.43953C2.08 9.43953 2.24 9.51953 2.48 9.51953C2.8 9.51953 3.12 9.51953 3.36 9.43953C1.84 9.11953 0.8 7.83953 0.8 6.23953V6.15953C0.8 6.39953 1.68 6.55953 2.24 6.55953C1.36 5.99953 0.72 4.95953 0.72 3.83953C0.72 3.19953 0.88 2.63953 1.2 2.15953C2.8 4.15953 5.2 5.43953 8 5.59953C7.84 5.27953 7.76 5.03953 7.76 4.79953C7.76 2.95953 9.2 1.51953 11.04 1.51953C12 1.51953 12.8 1.91953 13.44 2.55953C14.16 2.39953 14.88 2.15953 15.52 1.75953C15.28 2.55953 14.72 3.19953 14.08 3.59953C14.72 3.51953 15.36 3.35953 16 3.11953C15.52 3.67953 15.04 4.23953 14.4 4.71953V4.71953Z" fill="var(--fill-0, #111111)"/>
</g>
</svg>
