<svg preserveAspectRatio="none" width="100%" height="100%" overflow="visible" style="display: block;" viewBox="0 0 198.604 40" fill="none" xmlns="http://www.w3.org/2000/svg">
<g id="Testimonial Logo Container">
<path id="Vector" fill-rule="evenodd" clip-rule="evenodd" d="M20 0C31.0453 0 40.0003 8.95431 40.0003 20C40.0003 31.0457 31.0453 40 20 40C8.9543 40 0 31.0457 0 20C0 8.95431 8.9543 0 20 0ZM19.2771 1.49659C16.9954 1.81769 14.8228 3.65108 13.1363 6.7174C12.6471 7.60683 12.2057 8.58946 11.8211 9.65044C14.1143 9.07417 16.6334 8.73442 19.2771 8.68187V1.49659ZM10.1307 10.1308C10.6091 8.62958 11.1942 7.2484 11.8695 6.02065C12.7055 4.50059 13.6977 3.18795 14.8156 2.17977C8.7367 3.94523 3.9452 8.73679 2.1797 14.8157C3.1879 13.6978 4.5005 12.7056 6.0206 11.8696C7.2484 11.1943 8.6295 10.6091 10.1307 10.1308ZM9.6504 11.8211C9.0741 14.1143 8.7344 16.6334 8.6818 19.2771H1.4965C1.8176 16.9954 3.651 14.8228 6.7174 13.1364C7.6068 12.6472 8.5894 12.2058 9.6504 11.8211ZM10.1279 19.2771C10.1876 16.392 10.603 13.6834 11.2902 11.2902C13.6834 10.603 16.392 10.1876 19.2771 10.1279V13.2508C18.2008 16.0062 16.0056 18.2012 13.2501 19.2771H10.1279ZM8.6818 20.7229H1.4965C1.8176 23.0046 3.651 25.1771 6.7174 26.8636C7.6068 27.3528 8.5894 27.7942 9.6504 28.1789C9.0741 25.8857 8.7344 23.3666 8.6818 20.7229ZM11.2902 28.7098C10.603 26.3166 10.1876 23.608 10.1279 20.7229H13.2501C16.0056 21.7988 18.2008 23.9938 19.2771 26.7492V29.8721C16.392 29.8124 13.6834 29.397 11.2902 28.7098ZM10.1307 29.8692C8.6295 29.3909 7.2484 28.8057 6.0206 28.1304C4.5005 27.2944 3.1879 26.3022 2.1797 25.1843C3.9452 31.2632 8.7367 36.0548 14.8156 37.8202C13.6977 36.812 12.7055 35.4994 11.8695 33.9793C11.1942 32.7516 10.6091 31.3704 10.1307 29.8692ZM19.2771 38.5034C16.9954 38.1823 14.8228 36.3489 13.1363 33.2826C12.6471 32.3932 12.2057 31.4105 11.8211 30.3496C14.1143 30.9258 16.6334 31.2656 19.2771 31.3181V38.5034ZM25.1843 37.8202C26.3022 36.812 27.2943 35.4994 28.1303 33.9793C28.8053 32.7516 29.3913 31.3704 29.8693 29.8692C31.3703 29.3909 32.7513 28.8057 33.9793 28.1304C35.4993 27.2944 36.8123 26.3022 37.8203 25.1843C36.0543 31.2632 31.2633 36.0548 25.1843 37.8202ZM28.1793 30.3496C27.7943 31.4105 27.3523 32.3932 26.8633 33.2826C25.1771 36.3489 23.0045 38.1823 20.7228 38.5034V31.3181C23.3665 31.2656 25.8856 30.9258 28.1793 30.3496ZM30.3493 28.1789C31.4103 27.7942 32.3933 27.3528 33.2823 26.8636C36.3493 25.1772 38.1823 23.0046 38.5033 20.7229H31.3183C31.2653 23.3666 30.9253 25.8857 30.3493 28.1789ZM29.8723 20.7229C29.8123 23.608 29.3973 26.3166 28.7093 28.7098C26.3165 29.397 23.6079 29.8124 20.7228 29.8721V26.7515C21.7988 23.9951 23.9945 21.7991 26.7507 20.7229H29.8723ZM31.3183 19.2771H38.5033C38.1823 16.9954 36.3493 14.8228 33.2823 13.1364C32.3933 12.6472 31.4103 12.2058 30.3493 11.8211C30.9253 14.1143 31.2653 16.6334 31.3183 19.2771ZM28.7093 11.2902C29.3973 13.6834 29.8123 16.392 29.8723 19.2771H26.7508C23.9945 18.2009 21.7988 16.0049 20.7228 13.2485V10.1279C23.6079 10.1876 26.3165 10.603 28.7093 11.2902ZM29.8693 10.1308C31.3703 10.6091 32.7513 11.1943 33.9793 11.8696C35.4993 12.7056 36.8123 13.6978 37.8203 14.8157C36.0543 8.73679 31.2633 3.94523 25.1843 2.17977C26.3022 3.18795 27.2943 4.50059 28.1303 6.02065C28.8053 7.2484 29.3913 8.62958 29.8693 10.1308ZM20.7228 1.49659C23.0045 1.81769 25.1771 3.65108 26.8633 6.7174C27.3523 7.60684 27.7943 8.58946 28.1793 9.65044C25.8856 9.07417 23.3665 8.73442 20.7228 8.68187V1.49659Z" fill="var(--fill-0, #111111)"/>
<g id="CreativaLab">
<path id="Vector_2" d="M184.186 30V9.63636H187.786V17.2528H187.935C188.12 16.8816 188.382 16.4872 188.72 16.0696C189.058 15.6454 189.516 15.2841 190.092 14.9858C190.669 14.6809 191.405 14.5284 192.3 14.5284C193.48 14.5284 194.544 14.83 195.492 15.4332C196.446 16.0298 197.202 16.9148 197.759 18.0881C198.322 19.2547 198.604 20.6866 198.604 22.3835C198.604 24.0606 198.329 25.4858 197.779 26.6591C197.228 27.8324 196.479 28.7273 195.531 29.3437C194.583 29.9602 193.51 30.2685 192.31 30.2685C191.435 30.2685 190.709 30.1226 190.132 29.831C189.556 29.5393 189.092 29.188 188.74 28.777C188.395 28.3594 188.127 27.965 187.935 27.5937H187.726V30H184.186ZM187.716 22.3636C187.716 23.3513 187.855 24.2164 188.134 24.9588C188.419 25.7012 188.826 26.2812 189.357 26.6989C189.894 27.1098 190.543 27.3153 191.306 27.3153C192.101 27.3153 192.767 27.1032 193.304 26.679C193.841 26.2481 194.245 25.6615 194.517 24.919C194.796 24.17 194.935 23.3182 194.935 22.3636C194.935 21.4157 194.799 20.5739 194.527 19.8381C194.255 19.1023 193.851 18.5256 193.314 18.108C192.777 17.6903 192.108 17.4815 191.306 17.4815C190.537 17.4815 189.884 17.6837 189.347 18.0881C188.81 18.4924 188.402 19.0592 188.124 19.7884C187.852 20.5175 187.716 21.3759 187.716 22.3636Z" fill="var(--fill-0, #111111)"/>
<path id="Vector_3" d="M173.464 30.3082C172.496 30.3082 171.624 30.1359 170.849 29.7912C170.08 29.4399 169.47 28.9228 169.019 28.2401C168.575 27.5573 168.353 26.7154 168.353 25.7145C168.353 24.8527 168.512 24.1402 168.83 23.5767C169.149 23.0133 169.583 22.5625 170.133 22.2244C170.683 21.8864 171.303 21.6312 171.992 21.4588C172.688 21.2798 173.408 21.1506 174.15 21.071C175.045 20.9782 175.771 20.8954 176.328 20.8224C176.884 20.7429 177.289 20.6236 177.541 20.4645C177.799 20.2988 177.928 20.0436 177.928 19.6989V19.6392C177.928 18.8902 177.706 18.3101 177.262 17.8991C176.818 17.4882 176.178 17.2827 175.343 17.2827C174.462 17.2827 173.762 17.4749 173.245 17.8594C172.735 18.2438 172.39 18.6979 172.211 19.2216L168.85 18.7443C169.115 17.8163 169.553 17.0407 170.163 16.4176C170.773 15.7879 171.518 15.3172 172.4 15.0057C173.282 14.6875 174.256 14.5284 175.323 14.5284C176.059 14.5284 176.792 14.6146 177.521 14.7869C178.25 14.9593 178.916 15.2443 179.519 15.642C180.122 16.0331 180.606 16.5668 180.971 17.2429C181.342 17.919 181.528 18.7642 181.528 19.7784V30H178.068V27.902H177.948C177.73 28.3262 177.421 28.724 177.024 29.0952C176.632 29.4598 176.139 29.7547 175.542 29.9801C174.952 30.1989 174.259 30.3082 173.464 30.3082ZM174.399 27.6634C175.121 27.6634 175.748 27.5208 176.278 27.2358C176.808 26.9441 177.216 26.5597 177.501 26.0824C177.792 25.6051 177.938 25.0848 177.938 24.5213V22.7216C177.826 22.8144 177.633 22.9006 177.362 22.9801C177.096 23.0597 176.798 23.1293 176.467 23.1889C176.135 23.2486 175.807 23.3016 175.482 23.348C175.158 23.3944 174.876 23.4342 174.637 23.4673C174.1 23.5402 173.62 23.6596 173.195 23.8253C172.771 23.991 172.436 24.223 172.191 24.5213C171.946 24.813 171.823 25.1908 171.823 25.6548C171.823 26.3177 172.065 26.8182 172.549 27.1562C173.033 27.4943 173.649 27.6634 174.399 27.6634Z" fill="var(--fill-0, #111111)"/>
<path id="Vector_4" d="M154.489 30V9.63636H158.178V26.9077H167.146V30H154.489Z" fill="var(--fill-0, #111111)"/>
<path id="Vector_5" d="M143.766 30.3082C142.799 30.3082 141.927 30.1359 141.151 29.7912C140.382 29.4399 139.773 28.9228 139.322 28.2401C138.878 27.5573 138.656 26.7154 138.656 25.7145C138.656 24.8527 138.815 24.1402 139.133 23.5767C139.451 23.0133 139.885 22.5625 140.435 22.2244C140.986 21.8864 141.605 21.6312 142.295 21.4588C142.991 21.2798 143.71 21.1506 144.452 21.071C145.347 20.9782 146.073 20.8954 146.63 20.8224C147.187 20.7429 147.591 20.6236 147.843 20.4645C148.102 20.2988 148.231 20.0436 148.231 19.6989V19.6392C148.231 18.8902 148.009 18.3101 147.565 17.8991C147.121 17.4882 146.481 17.2827 145.646 17.2827C144.764 17.2827 144.065 17.4749 143.548 17.8594C143.037 18.2438 142.693 18.6979 142.514 19.2216L139.153 18.7443C139.418 17.8163 139.855 17.0407 140.465 16.4176C141.075 15.7879 141.821 15.3172 142.702 15.0057C143.584 14.6875 144.559 14.5284 145.626 14.5284C146.362 14.5284 147.094 14.6146 147.823 14.7869C148.552 14.9593 149.219 15.2443 149.822 15.642C150.425 16.0331 150.909 16.5668 151.273 17.2429C151.645 17.919 151.83 18.7642 151.83 19.7784V30H148.37V27.902H148.251C148.032 28.3262 147.724 28.724 147.326 29.0952C146.935 29.4598 146.441 29.7547 145.844 29.9801C145.255 30.1989 144.562 30.3082 143.766 30.3082ZM144.701 27.6634C145.424 27.6634 146.05 27.5208 146.58 27.2358C147.111 26.9441 147.518 26.5597 147.803 26.0824C148.095 25.6051 148.241 25.0848 148.241 24.5213V22.7216C148.128 22.8144 147.936 22.9006 147.664 22.9801C147.399 23.0597 147.101 23.1293 146.769 23.1889C146.438 23.2486 146.11 23.3016 145.785 23.348C145.46 23.3944 145.178 23.4342 144.94 23.4673C144.403 23.5402 143.922 23.6596 143.498 23.8253C143.074 23.991 142.739 24.223 142.494 24.5213C142.248 24.813 142.126 25.1908 142.126 25.6548C142.126 26.3177 142.368 26.8182 142.852 27.1562C143.336 27.4943 143.952 27.6634 144.701 27.6634Z" fill="var(--fill-0, #111111)"/>
<path id="Vector_6" d="M138.438 14.7273L132.999 30H129.022L123.583 14.7273H127.421L130.931 26.0724H131.09L134.61 14.7273H138.438Z" fill="var(--fill-0, #111111)"/>
<path id="Vector_7" d="M118.615 30V14.7273H122.215V30H118.615ZM120.425 12.5597C119.855 12.5597 119.364 12.3707 118.953 11.9929C118.542 11.6084 118.337 11.1477 118.337 10.6108C118.337 10.0672 118.542 9.60653 118.953 9.22869C119.364 8.84422 119.855 8.65199 120.425 8.65199C121.002 8.65199 121.492 8.84422 121.897 9.22869C122.308 9.60653 122.513 10.0672 122.513 10.6108C122.513 11.1477 122.308 11.6084 121.897 11.9929C121.492 12.3707 121.002 12.5597 120.425 12.5597Z" fill="var(--fill-0, #111111)"/>
<path id="Vector_8" d="M116.725 14.7273V17.5114H107.945V14.7273H116.725ZM110.113 11.0682H113.712V25.4062C113.712 25.8902 113.785 26.2614 113.931 26.5199C114.084 26.7718 114.282 26.9441 114.528 27.0369C114.773 27.1297 115.045 27.1761 115.343 27.1761C115.568 27.1761 115.774 27.1596 115.959 27.1264C116.152 27.0933 116.298 27.0634 116.397 27.0369L117.004 29.8509C116.811 29.9171 116.536 29.9901 116.178 30.0696C115.827 30.1491 115.396 30.1955 114.886 30.2088C113.984 30.2353 113.172 30.0994 112.45 29.8011C111.727 29.4962 111.154 29.0256 110.729 28.3892C110.312 27.7528 110.106 26.9574 110.113 26.0028V11.0682Z" fill="var(--fill-0, #111111)"/>
<path id="Vector_9" d="M98.5354 30.3082C97.5676 30.3082 96.696 30.1359 95.9204 29.7912C95.1514 29.4399 94.5416 28.9228 94.0908 28.2401C93.6467 27.5573 93.4246 26.7154 93.4246 25.7145C93.4246 24.8527 93.5837 24.1402 93.9019 23.5767C94.2201 23.0133 94.6543 22.5625 95.2045 22.2244C95.7547 21.8864 96.3745 21.6312 97.0639 21.4588C97.7599 21.2798 98.4791 21.1506 99.2215 21.071C100.116 20.9782 100.842 20.8954 101.399 20.8224C101.956 20.7429 102.36 20.6236 102.612 20.4645C102.871 20.2988 103 20.0436 103 19.6989V19.6392C103 18.8902 102.778 18.3101 102.334 17.8991C101.89 17.4882 101.25 17.2827 100.415 17.2827C99.5331 17.2827 98.8337 17.4749 98.3167 17.8594C97.8063 18.2438 97.4616 18.6979 97.2826 19.2216L93.9218 18.7443C94.187 17.8163 94.6245 17.0407 95.2343 16.4176C95.8442 15.7879 96.5899 15.3172 97.4715 15.0057C98.3531 14.6875 99.3276 14.5284 100.395 14.5284C101.131 14.5284 101.863 14.6146 102.592 14.7869C103.321 14.9593 103.988 15.2443 104.591 15.642C105.194 16.0331 105.678 16.5668 106.043 17.2429C106.414 17.919 106.599 18.7642 106.599 19.7784V30H103.139V27.902H103.02C102.801 28.3262 102.493 28.724 102.095 29.0952C101.704 29.4598 101.21 29.7547 100.614 29.9801C100.024 30.1989 99.3309 30.3082 98.5354 30.3082ZM99.4701 27.6634C100.193 27.6634 100.819 27.5208 101.349 27.2358C101.88 26.9441 102.287 26.5597 102.572 26.0824C102.864 25.6051 103.01 25.0848 103.01 24.5213V22.7216C102.897 22.8144 102.705 22.9006 102.433 22.9801C102.168 23.0597 101.87 23.1293 101.538 23.1889C101.207 23.2486 100.879 23.3016 100.554 23.348C100.229 23.3944 99.9474 23.4342 99.7087 23.4673C99.1718 23.5402 98.6912 23.6596 98.267 23.8253C97.8427 23.991 97.508 24.223 97.2627 24.5213C97.0174 24.813 96.8948 25.1908 96.8948 25.6548C96.8948 26.3177 97.1368 26.8182 97.6207 27.1562C98.1046 27.4943 98.721 27.6634 99.4701 27.6634Z" fill="var(--fill-0, #111111)"/>
<path id="Vector_10" d="M85.4243 30.2983C83.893 30.2983 82.5706 29.9801 81.4569 29.3438C80.3499 28.7008 79.4981 27.7926 78.9015 26.6193C78.3049 25.4394 78.0067 24.0507 78.0067 22.4531C78.0067 20.8821 78.3049 19.5033 78.9015 18.3168C79.5048 17.1236 80.3466 16.1955 81.4271 15.5327C82.5076 14.8632 83.777 14.5284 85.2353 14.5284C86.1766 14.5284 87.0649 14.6809 87.9001 14.9858C88.742 15.2841 89.4844 15.7481 90.1274 16.3778C90.777 17.0076 91.2874 17.8097 91.6586 18.7841C92.0299 19.7519 92.2155 20.9053 92.2155 22.2443V23.348H79.697V20.9219H88.7652C88.7585 20.2325 88.6094 19.6193 88.3177 19.0824C88.0261 18.5388 87.6184 18.1113 87.0947 17.7997C86.5777 17.4882 85.9745 17.3324 85.2851 17.3324C84.5493 17.3324 83.903 17.5114 83.3461 17.8693C82.7893 18.2206 82.3551 18.6847 82.0436 19.2614C81.7387 19.8314 81.5829 20.4579 81.5763 21.1406V23.2585C81.5763 24.1468 81.7387 24.9091 82.0635 25.5455C82.3883 26.1752 82.8424 26.6591 83.4257 26.9972C84.009 27.3286 84.6918 27.4943 85.474 27.4943C85.9977 27.4943 86.4716 27.4214 86.8959 27.2756C87.3201 27.1231 87.688 26.901 87.9995 26.6094C88.3111 26.3177 88.5464 25.9564 88.7055 25.5256L92.0663 25.9034C91.8542 26.7917 91.4498 27.5672 90.8532 28.2301C90.2633 28.8864 89.5076 29.3968 88.5862 29.7614C87.6648 30.1193 86.6108 30.2983 85.4243 30.2983Z" fill="var(--fill-0, #111111)"/>
<path id="Vector_11" d="M69.3102 30V14.7273H72.8003V17.2727H72.9594C73.2378 16.3911 73.7151 15.7116 74.3912 15.2344C75.074 14.7505 75.8529 14.5085 76.7279 14.5085C76.9267 14.5085 77.1488 14.5185 77.394 14.5384C77.6459 14.5516 77.8547 14.5748 78.0205 14.608V17.919C77.868 17.866 77.6261 17.8196 77.2946 17.7798C76.9698 17.7334 76.6549 17.7102 76.35 17.7102C75.6938 17.7102 75.1038 17.8527 74.5801 18.1378C74.0631 18.4162 73.6554 18.804 73.3571 19.3011C73.0588 19.7983 72.9097 20.3717 72.9097 21.0213V30H69.3102Z" fill="var(--fill-0, #111111)"/>
<path id="Vector_12" d="M67.2111 16.5071H63.4924C63.3863 15.8973 63.1908 15.357 62.9057 14.8864C62.6207 14.4091 62.2661 14.0047 61.8418 13.6733C61.4176 13.3419 60.9337 13.0933 60.3901 12.9276C59.8532 12.7552 59.2732 12.669 58.6501 12.669C57.5431 12.669 56.562 12.9474 55.7069 13.5043C54.8518 14.0544 54.1823 14.8632 53.6984 15.9304C53.2145 16.991 52.9725 18.2869 52.9725 19.8182C52.9725 21.3759 53.2145 22.6884 53.6984 23.7557C54.1889 24.8163 54.8584 25.6184 55.7069 26.1619C56.562 26.6989 57.5397 26.9673 58.6401 26.9673C59.25 26.9673 59.82 26.8878 60.3503 26.7287C60.8873 26.563 61.3679 26.321 61.7921 26.0028C62.223 25.6847 62.5842 25.2936 62.8759 24.8295C63.1742 24.3655 63.3797 23.8352 63.4924 23.2386L67.2111 23.2585C67.0719 24.2263 66.7703 25.1345 66.3063 25.983C65.8489 26.8314 65.249 27.5805 64.5066 28.2301C63.7642 28.8731 62.8958 29.3769 61.9015 29.7415C60.9072 30.0994 59.8035 30.2784 58.5904 30.2784C56.8006 30.2784 55.2031 29.8641 53.7978 29.0355C52.3925 28.2069 51.2855 27.0104 50.4768 25.446C49.6681 23.8816 49.2637 22.0057 49.2637 19.8182C49.2637 17.6241 49.6714 15.7481 50.4867 14.1903C51.302 12.6259 52.4124 11.4295 53.8177 10.6009C55.223 9.77225 56.8139 9.35795 58.5904 9.35795C59.7239 9.35795 60.7779 9.51704 61.7523 9.83523C62.7268 10.1534 63.5951 10.6207 64.3574 11.2372C65.1198 11.8471 65.7462 12.5961 66.2367 13.4844C66.7339 14.366 67.0587 15.3736 67.2111 16.5071Z" fill="var(--fill-0, #111111)"/>
</g>
</g>
</svg>
