<svg preserveAspectRatio="none" width="100%" height="100%" overflow="visible" style="display: block;" viewBox="0 0 231.582 40" fill="none" xmlns="http://www.w3.org/2000/svg">
<g id="Testimonial Logo Container">
<g id="Kumodo">
<path id="Vector" d="M220.362 35.7181C218.076 35.7181 216.094 35.2151 214.417 34.209C212.741 33.2029 211.44 31.7955 210.515 29.9866C209.6 28.1777 209.143 26.0639 209.143 23.6452C209.143 21.2266 209.6 19.1077 210.515 17.2887C211.44 15.4696 212.741 14.057 214.417 13.0509C216.094 12.0449 218.076 11.5418 220.362 11.5418C222.649 11.5418 224.631 12.0449 226.307 13.0509C227.984 14.057 229.28 15.4696 230.194 17.2887C231.119 19.1077 231.582 21.2266 231.582 23.6452C231.582 26.0639 231.119 28.1777 230.194 29.9866C229.28 31.7955 227.984 33.2029 226.307 34.209C224.631 35.2151 222.649 35.7181 220.362 35.7181ZM220.393 31.2975C221.633 31.2975 222.669 30.9571 223.503 30.2762C224.336 29.5851 224.956 28.6604 225.362 27.5019C225.779 26.3433 225.987 25.0527 225.987 23.63C225.987 22.1971 225.779 20.9014 225.362 19.7429C224.956 18.5742 224.336 17.6443 223.503 16.9533C222.669 16.2623 221.633 15.9167 220.393 15.9167C219.123 15.9167 218.066 16.2623 217.222 16.9533C216.389 17.6443 215.764 18.5742 215.347 19.7429C214.941 20.9014 214.737 22.1971 214.737 23.63C214.737 25.0527 214.941 26.3433 215.347 27.5019C215.764 28.6604 216.389 29.5851 217.222 30.2762C218.066 30.9571 219.123 31.2975 220.393 31.2975Z" fill="var(--fill-0, #111111)"/>
<path id="Vector_2" d="M193.516 35.6732C191.677 35.6732 190.03 35.2007 188.577 34.2556C187.124 33.3105 185.975 31.9385 185.132 30.1398C184.288 28.3411 183.867 26.1562 183.867 23.5851C183.867 20.9835 184.294 18.7884 185.147 16.9998C186.011 15.2011 187.175 13.8444 188.638 12.9298C190.101 12.005 191.732 11.5426 193.531 11.5426C194.903 11.5426 196.031 11.7764 196.915 12.2438C197.799 12.7012 198.501 13.255 199.019 13.9054C199.537 14.5456 199.939 15.1503 200.223 15.7194H200.452V4.0428H205.985V35.2616H200.558V31.5727H200.223C199.939 32.1418 199.527 32.7465 198.988 33.3867C198.45 34.0168 197.738 34.5554 196.854 35.0025C195.97 35.4497 194.857 35.6732 193.516 35.6732ZM195.056 31.1459C196.224 31.1459 197.22 30.8308 198.043 30.2008C198.866 29.5606 199.491 28.6713 199.918 27.5332C200.345 26.395 200.558 25.0688 200.558 23.5546C200.558 22.0404 200.345 20.7244 199.918 19.6065C199.502 18.4886 198.882 17.6198 198.058 16.9998C197.245 16.3799 196.244 16.07 195.056 16.07C193.826 16.07 192.799 16.3901 191.976 17.0303C191.153 17.6706 190.533 18.5547 190.117 19.6827C189.7 20.8107 189.492 22.1014 189.492 23.5546C189.492 25.018 189.7 26.3238 190.117 27.4722C190.543 28.6104 191.168 29.5097 191.992 30.1703C192.825 30.8207 193.846 31.1459 195.056 31.1459Z" fill="var(--fill-0, #111111)"/>
<path id="Vector_3" d="M170.641 35.7181C168.354 35.7181 166.372 35.2151 164.696 34.209C163.019 33.2029 161.718 31.7955 160.793 29.9866C159.879 28.1777 159.421 26.0639 159.421 23.6452C159.421 21.2266 159.879 19.1077 160.793 17.2887C161.718 15.4696 163.019 14.057 164.696 13.0509C166.372 12.0449 168.354 11.5418 170.641 11.5418C172.927 11.5418 174.909 12.0449 176.586 13.0509C178.262 14.057 179.558 15.4696 180.473 17.2887C181.398 19.1077 181.86 21.2266 181.86 23.6452C181.86 26.0639 181.398 28.1777 180.473 29.9866C179.558 31.7955 178.262 33.2029 176.586 34.209C174.909 35.2151 172.927 35.7181 170.641 35.7181ZM170.671 31.2975C171.911 31.2975 172.948 30.9571 173.781 30.2762C174.614 29.5851 175.234 28.6604 175.641 27.5019C176.057 26.3433 176.266 25.0527 176.266 23.63C176.266 22.1971 176.057 20.9014 175.641 19.7429C175.234 18.5742 174.614 17.6443 173.781 16.9533C172.948 16.2623 171.911 15.9167 170.671 15.9167C169.401 15.9167 168.344 16.2623 167.501 16.9533C166.667 17.6443 166.042 18.5742 165.626 19.7429C165.219 20.9014 165.016 22.1971 165.016 23.63C165.016 25.0527 165.219 26.3433 165.626 27.5019C166.042 28.6604 166.667 29.5851 167.501 30.2762C168.344 30.9571 169.401 31.2975 170.671 31.2975Z" fill="var(--fill-0, #111111)"/>
<path id="Vector_4" d="M123.621 35.2608V11.8467H128.895V15.8253H129.169C129.657 14.4838 130.465 13.4371 131.593 12.6851C132.721 11.9229 134.068 11.5418 135.633 11.5418C137.218 11.5418 138.554 11.928 139.642 12.7003C140.739 13.4625 141.511 14.5042 141.959 15.8253H142.203C142.721 14.5245 143.595 13.4879 144.824 12.7156C146.064 11.9331 147.533 11.5418 149.23 11.5418C151.384 11.5418 153.142 12.2227 154.504 13.5845C155.866 14.9462 156.547 16.933 156.547 19.5447V35.2608H151.013V20.3983C151.013 18.9451 150.627 17.8832 149.855 17.2124C149.082 16.5316 148.137 16.1911 147.019 16.1911C145.688 16.1911 144.647 16.6078 143.895 17.4411C143.153 18.2642 142.782 19.3364 142.782 20.6575V35.2608H137.37V20.1697C137.37 18.9604 137.004 17.9949 136.273 17.2734C135.551 16.5519 134.606 16.1911 133.438 16.1911C132.645 16.1911 131.923 16.3944 131.273 16.8009C130.623 17.1972 130.104 17.7612 129.718 18.4929C129.332 19.2144 129.139 20.0579 129.139 21.0233V35.2608H123.621Z" fill="var(--fill-0, #111111)"/>
<path id="Vector_5" d="M114.146 25.4143V11.8475H119.664V35.2616H114.313V31.1001H114.069C113.541 32.4111 112.672 33.4832 111.463 34.3165C110.264 35.1498 108.785 35.5665 107.027 35.5665C105.492 35.5665 104.136 35.2261 102.957 34.5452C101.788 33.8541 100.874 32.8531 100.213 31.5422C99.5525 30.2211 99.2222 28.6256 99.2222 26.7557V11.8475H104.74V25.9021C104.74 27.3858 105.147 28.5646 105.96 29.4386C106.773 30.3125 107.84 30.7495 109.161 30.7495C109.974 30.7495 110.762 30.5514 111.524 30.155C112.286 29.7587 112.911 29.1693 113.399 28.3868C113.897 27.5941 114.146 26.6033 114.146 25.4143Z" fill="var(--fill-0, #111111)"/>
<path id="Vector_6" d="M73.6002 35.2616V4.0428H79.2555V18.387H79.6366L91.8162 4.0428H98.7215L86.6486 18.0517L98.8282 35.2616H92.0296L82.7158 21.8778L79.2555 25.9631V35.2616H73.6002Z" fill="var(--fill-0, #111111)"/>
</g>
<path id="Vector_7" d="M16.0158 36.7446C11.4378 41.3226 3.68439 41.3044 1.51909 35.2029C1.09515 34.0084 0.756197 32.7801 0.506898 31.5268C-0.510984 26.4094 0.0114301 21.1053 2.00808 16.2849C4.00473 11.4646 7.38593 7.34456 11.7241 4.44587C16.0624 1.54717 21.1627 -2.23498e-07 26.3802 0C31.5976 2.23498e-07 36.698 1.54717 41.0361 4.44587C45.3744 7.34456 48.7555 11.4646 50.7522 16.285C52.7488 21.1053 53.2712 26.4094 52.2534 31.5268C52.0041 32.7801 51.6651 34.0084 51.2411 35.2029C49.0758 41.3044 41.3225 41.3226 36.7444 36.7446L29.6776 29.6777C29.0025 29.0026 29.0722 27.8891 29.2585 26.9527C29.3716 26.3835 29.3135 25.7934 29.0914 25.2571C28.8693 24.7209 28.4932 24.2625 28.0106 23.9401C27.528 23.6177 26.9606 23.4455 26.3802 23.4455C25.7998 23.4455 25.2324 23.6177 24.7498 23.9401C24.267 24.2625 23.8909 24.7209 23.6688 25.2571C23.4467 25.7934 23.3886 26.3835 23.5018 26.9527C23.6881 27.8891 23.7577 29.0026 23.0826 29.6777L16.0158 36.7446Z" fill="var(--fill-0, #111111)"/>
</g>
</svg>
