<svg preserveAspectRatio="none" width="100%" height="100%" overflow="visible" style="display: block;" viewBox="0 0 163.902 40" fill="none" xmlns="http://www.w3.org/2000/svg">
<g id="Logo" clip-path="url(#clip0_0_198)">
<path id="Vector" d="M24.7901 1.92867L20.9531 0.900518L17.7195 12.9684L14.8002 2.07343L10.963 3.10159L14.1172 14.8728L6.26094 7.01659L3.45197 9.82556L12.0693 18.4429L1.3378 15.5674L0.309642 19.4045L12.0351 22.5463C11.9009 21.9673 11.8299 21.364 11.8299 20.7441C11.8299 16.3562 15.3869 12.7991 19.7748 12.7991C24.1627 12.7991 27.7198 16.3562 27.7198 20.7441C27.7198 21.36 27.6497 21.9596 27.5171 22.5352L38.1734 25.3905L39.2015 21.5535L27.4294 18.3991L38.1616 15.5234L37.1334 11.6863L25.3618 14.8405L33.218 6.98434L30.409 4.17538L21.9112 12.6732L24.7901 1.92867Z" fill="var(--fill-0, #111111)"/>
<path id="Vector_2" d="M27.5066 22.5799C27.1777 23.9707 26.4831 25.2202 25.5301 26.2213L33.2501 33.9414L36.0591 31.1324L27.5066 22.5799Z" fill="var(--fill-0, #111111)"/>
<path id="Vector_3" d="M25.4525 26.3018C24.488 27.2868 23.2692 28.022 21.9023 28.4008L24.7115 38.8847L28.5486 37.8565L25.4525 26.3018Z" fill="var(--fill-0, #111111)"/>
<path id="Vector_4" d="M21.7584 28.4394C21.1242 28.6024 20.4596 28.6891 19.7746 28.6891C19.0407 28.6891 18.3301 28.5896 17.6555 28.4033L14.8438 38.8968L18.6808 39.9249L21.7584 28.4394Z" fill="var(--fill-0, #111111)"/>
<path id="Vector_5" d="M17.5201 28.3646C16.1741 27.9669 14.977 27.2224 14.0322 26.2345L6.29319 33.9736L9.10216 36.7825L17.5201 28.3646Z" fill="var(--fill-0, #111111)"/>
<path id="Vector_6" d="M13.9676 26.1666C13.039 25.1725 12.3626 23.9397 12.0407 22.5703L1.34961 25.435L2.37776 29.2721L13.9676 26.1666Z" fill="var(--fill-0, #111111)"/>
<g id="FinVision">
<path id="Vector_7" d="M154.453 26.052V35.0009H150.948V19.7282H154.298V22.3233H154.473C154.815 21.4682 155.36 20.7888 156.109 20.285C156.864 19.7812 157.797 19.5293 158.907 19.5293C159.934 19.5293 160.828 19.7547 161.589 20.2054C162.358 20.6562 162.951 21.3091 163.371 22.1642C163.797 23.0194 164.007 24.0568 164 25.2765V35.0009H160.495V25.8333C160.495 24.8124 160.237 24.0137 159.721 23.437C159.211 22.8603 158.504 22.5719 157.6 22.5719C156.987 22.5719 156.442 22.7111 155.964 22.9895C155.493 23.2613 155.121 23.6557 154.85 24.1728C154.586 24.6898 154.453 25.3162 154.453 26.052Z" fill="var(--fill-0, #111111)"/>
<path id="Vector_8" d="M141.937 35.2992C140.485 35.2992 139.226 34.9711 138.161 34.3148C137.096 33.6586 136.269 32.7405 135.682 31.5605C135.101 30.3806 134.811 29.0018 134.811 27.4242C134.811 25.8465 135.101 24.4644 135.682 23.2779C136.269 22.0913 137.096 21.1699 138.161 20.5137C139.226 19.8574 140.485 19.5293 141.937 19.5293C143.389 19.5293 144.648 19.8574 145.713 20.5137C146.778 21.1699 147.601 22.0913 148.182 23.2779C148.77 24.4644 149.063 25.8465 149.063 27.4242C149.063 29.0018 148.77 30.3806 148.182 31.5605C147.601 32.7405 146.778 33.6586 145.713 34.3148C144.648 34.9711 143.389 35.2992 141.937 35.2992ZM141.956 32.4157C142.744 32.4157 143.402 32.1936 143.932 31.7495C144.461 31.2987 144.855 30.6955 145.113 29.9398C145.377 29.1841 145.51 28.3423 145.51 27.4142C145.51 26.4796 145.377 25.6344 145.113 24.8787C144.855 24.1164 144.461 23.5099 143.932 23.0591C143.402 22.6084 142.744 22.383 141.956 22.383C141.149 22.383 140.478 22.6084 139.942 23.0591C139.413 23.5099 139.016 24.1164 138.751 24.8787C138.493 25.6344 138.364 26.4796 138.364 27.4142C138.364 28.3423 138.493 29.1841 138.751 29.9398C139.016 30.6955 139.413 31.2987 139.942 31.7495C140.478 32.1936 141.149 32.4157 141.956 32.4157Z" fill="var(--fill-0, #111111)"/>
<path id="Vector_9" d="M129.431 35.0004V19.7276H132.936V35.0004H129.431ZM131.193 17.56C130.638 17.56 130.161 17.3711 129.76 16.9933C129.36 16.6088 129.16 16.1481 129.16 15.6112C129.16 15.0676 129.36 14.6069 129.76 14.229C130.161 13.8446 130.638 13.6523 131.193 13.6523C131.755 13.6523 132.233 13.8446 132.626 14.229C133.027 14.6069 133.227 15.0676 133.227 15.6112C133.227 16.1481 133.027 16.6088 132.626 16.9933C132.233 17.3711 131.755 17.56 131.193 17.56Z" fill="var(--fill-0, #111111)"/>
<path id="Vector_10" d="M127.312 23.7651L124.116 24.123C124.026 23.7916 123.868 23.4801 123.642 23.1884C123.422 22.8967 123.125 22.6614 122.751 22.4824C122.377 22.3034 121.918 22.214 121.376 22.214C120.647 22.214 120.033 22.3764 119.536 22.7012C119.046 23.026 118.804 23.4469 118.81 23.964C118.804 24.4081 118.962 24.7694 119.285 25.0478C119.614 25.3262 120.156 25.5549 120.911 25.7338L123.448 26.2907C124.855 26.6022 125.901 27.0961 126.585 27.7722C127.276 28.4483 127.625 29.3333 127.631 30.427C127.625 31.3882 127.35 32.2367 126.808 32.9725C126.272 33.7016 125.527 34.2717 124.571 34.6827C123.616 35.0937 122.519 35.2992 121.279 35.2992C119.459 35.2992 117.994 34.9081 116.883 34.1259C115.773 33.3371 115.111 32.24 114.898 30.8347L118.316 30.4966C118.471 31.186 118.801 31.7064 119.304 32.0577C119.808 32.409 120.463 32.5847 121.27 32.5847C122.102 32.5847 122.77 32.409 123.274 32.0577C123.784 31.7064 124.039 31.2722 124.039 30.7551C124.039 30.3176 123.874 29.9564 123.545 29.6713C123.222 29.3863 122.719 29.1676 122.035 29.0151L119.498 28.4682C118.071 28.1633 117.016 27.6496 116.331 26.927C115.647 26.1979 115.308 25.2765 115.315 24.1628C115.308 23.2215 115.557 22.4062 116.06 21.7168C116.57 21.0208 117.277 20.4838 118.181 20.106C119.091 19.7215 120.14 19.5293 121.328 19.5293C123.071 19.5293 124.442 19.9105 125.443 20.6728C126.45 21.4351 127.073 22.4659 127.312 23.7651Z" fill="var(--fill-0, #111111)"/>
<path id="Vector_11" d="M109.538 35.0004V19.7276H113.044V35.0004H109.538ZM111.301 17.56C110.746 17.56 110.268 17.3711 109.868 16.9933C109.467 16.6088 109.267 16.1481 109.267 15.6112C109.267 15.0676 109.467 14.6069 109.868 14.229C110.268 13.8446 110.746 13.6523 111.301 13.6523C111.862 13.6523 112.34 13.8446 112.734 14.229C113.134 14.6069 113.334 15.0676 113.334 15.6112C113.334 16.1481 113.134 16.6088 112.734 16.9933C112.34 17.3711 111.862 17.56 111.301 17.56Z" fill="var(--fill-0, #111111)"/>
<path id="Vector_12" d="M93.7064 14.6367L98.8672 30.6651H99.0705L104.222 14.6367H108.172L101.181 35.0004H96.7467L89.7655 14.6367H93.7064Z" fill="var(--fill-0, #111111)"/>
<path id="Vector_13" d="M80.2639 26.052V35.0009H76.7588V19.7282H80.109V22.3233H80.2833C80.6254 21.4682 81.1708 20.7888 81.9196 20.285C82.6749 19.7812 83.6076 19.5293 84.7179 19.5293C85.7442 19.5293 86.6383 19.7547 87.4 20.2054C88.1681 20.6562 88.762 21.3091 89.1816 22.1642C89.6076 23.0194 89.8174 24.0568 89.8109 25.2765V35.0009H86.3058V25.8333C86.3058 24.8124 86.0476 24.0137 85.5312 23.437C85.0213 22.8603 84.3144 22.5719 83.4107 22.5719C82.7975 22.5719 82.2521 22.7111 81.7744 22.9895C81.3032 23.2613 80.932 23.6557 80.6609 24.1728C80.3962 24.6898 80.2639 25.3162 80.2639 26.052Z" fill="var(--fill-0, #111111)"/>
<path id="Vector_14" d="M70.7399 35.0004V19.7276H74.245V35.0004H70.7399ZM72.5021 17.56C71.947 17.56 71.4693 17.3711 71.0691 16.9933C70.6689 16.6088 70.4688 16.1481 70.4688 15.6112C70.4688 15.0676 70.6689 14.6069 71.0691 14.229C71.4693 13.8446 71.947 13.6523 72.5021 13.6523C73.0637 13.6523 73.5414 13.8446 73.9351 14.229C74.3353 14.6069 74.5354 15.0676 74.5354 15.6112C74.5354 16.1481 74.3353 16.6088 73.9351 16.9933C73.5414 17.3711 73.0637 17.56 72.5021 17.56Z" fill="var(--fill-0, #111111)"/>
<path id="Vector_15" d="M56.0088 35.0004V14.6367H68.7124V17.729H59.601V23.2575H67.8409V26.3498H59.601V35.0004H56.0088Z" fill="var(--fill-0, #111111)"/>
</g>
</g>
<defs>
<clipPath id="clip0_0_198">
<rect width="163.902" height="40" fill="white"/>
</clipPath>
</defs>
</svg>
